# xmcd
#
# Track frame offsets: 
#        150
#        26996
#        52465
#        85569
#        101012
#        129796
#        148987
#
# Disc length: 2244 seconds
#
# Revision: 5
# Processed by: cddbd v1.5.2PL0 Copyright (c) Steve Scherf et al.
# Submitted via: ExactAudioCopyFreeDBPlugin 1.0
#
DISCID=6208c207
DTITLE=The Modern Jazz Quartet - Plays George Gershwin's "Porgy and Be
DTITLE=ss" (24-bits)
DYEAR=1964
DGENRE=Jazz
TTITLE0=Summertime
TTITLE1=Bess, You Is My Woman Now
TTITLE2=My Man's Gone Now
TTITLE3=I Loves You, Porgy
TTITLE4=It Ain't Necessarily So
TTITLE5=Oh Bess, Oh Where's My Bess?
TTITLE6=There's a Boat That's Leavin' Soon for New York
EXTD=
EXTT0=
EXTT1=
EXTT2=
EXTT3=
EXTT4=
EXTT5=
EXTT6=
PLAYORDER=
